HIERARCHY
ROOT Hips
{
	OFFSET -3.958830 18.904000 13.208200
	CHANNELS 6 Xposition Yposition Zposition Zrotation Yrotation Xrotation 
	JOINT LHipJoint
	{
		OFFSET 0.000000 0.000000 0.000000
		CHANNELS 3 Zrotation Yrotation Xrotation
		JOINT LeftUpLeg
		{
			OFFSET 1.800000 -1.400000 0.085000
			CHANNELS 3 Zrotation Yrotation Xrotation
			JOINT LeftLeg
			{
				OFFSET 2.215000 -6.000000 0.000000
				CHANNELS 3 Zrotation Yrotation Xrotation
				JOINT LeftFoot
				{
					OFFSET 2.500000 -6.900000 0.000000
					CHANNELS 3 Zrotation Yrotation Xrotation
					JOINT LeftToeBase
					{
						OFFSET 0.200000 -0.500000 1.950000
						CHANNELS 3 Zrotation Yrotation Xrotation
						End Site
						{
							OFFSET 0.000000 0.000000 0.000000
						}
					}
				}
			}
		}
	}
	JOINT RHipJoint
	{
		OFFSET 0.000000 0.000000 0.000000
		CHANNELS 3 Zrotation Yrotation Xrotation
		JOINT RightUpLeg
		{
			OFFSET -1.800000 -1.400000 0.085000
			CHANNELS 3 Zrotation Yrotation Xrotation
			JOINT RightLeg
			{
				OFFSET -2.215000 -6.000000 0.000000
				CHANNELS 3 Zrotation Yrotation Xrotation
				JOINT RightFoot
				{
					OFFSET -2.500000 -6.900000 0.000000
					CHANNELS 3 Zrotation Yrotation Xrotation
					JOINT RightToeBase
					{
						OFFSET -0.200000 -0.500000 1.950000
						CHANNELS 3 Zrotation Yrotation Xrotation
						End Site
						{
							OFFSET 0.000000 0.000000 0.000000
						}
					}
				}
			}
		}
	}
	JOINT LowerBack
	{
		OFFSET 0.000000 0.000000 0.000000
		CHANNELS 3 Zrotation Yrotation Xrotation
		JOINT Spine
		{
			OFFSET -0.087000 1.940000 -0.288900
			CHANNELS 3 Zrotation Yrotation Xrotation
			JOINT Spine1
			{
				OFFSET 0.000000 1.950000 0.060000
				CHANNELS 3 Zrotation Yrotation Xrotation
				JOINT Neck
				{
					OFFSET 0.000000 0.000000 0.000000
					CHANNELS 3 Zrotation Yrotation Xrotation
					JOINT Neck1
					{
						OFFSET 0.000000 1.600000 0.340000
						CHANNELS 3 Zrotation Yrotation Xrotation
						JOINT Head
						{
							OFFSET 0.000000 1.667000 -0.240000
							CHANNELS 3 Zrotation Yrotation Xrotation
							End Site
							{
								OFFSET 0.000000 0.000000 0.000000
							}
						}
					}
				}
				JOINT LeftShoulder
				{
					OFFSET 0.000000 0.000000 0.000000
					CHANNELS 3 Zrotation Yrotation Xrotation
					JOINT LeftArm
					{
						OFFSET 2.700000 1.550000 -0.730000
						CHANNELS 3 Zrotation Yrotation Xrotation
						JOINT LeftForeArm
						{
							OFFSET 5.450000 0.000000 0.000000
							CHANNELS 3 Zrotation Yrotation Xrotation
							JOINT LeftHand
							{
								OFFSET 3.450000 0.000000 0.000000
								CHANNELS 3 Zrotation Yrotation Xrotation
								JOINT LeftHandIndex1
								{
									OFFSET 0.750000 0.000000 0.000000
									CHANNELS 3 Zrotation Yrotation Xrotation
									End Site
									{
										OFFSET 0.000000 0.000000 0.000000
									}
								}
							}
						}
					}
				}
				JOINT RightShoulder
				{
					OFFSET 0.000000 0.000000 0.000000
					CHANNELS 3 Zrotation Yrotation Xrotation
					JOINT RightArm
					{
						OFFSET -2.700000 1.550000 -0.730000
						CHANNELS 3 Zrotation Yrotation Xrotation
						JOINT RightForeArm
						{
							OFFSET -5.450000 0.000000 0.000000
							CHANNELS 3 Zrotation Yrotation Xrotation
							JOINT RightHand
							{
								OFFSET -3.450000 0.000000 0.000000
								CHANNELS 3 Zrotation Yrotation Xrotation
								JOINT RightHandIndex1
								{
									OFFSET -0.750000 0.000000 0.000000
									CHANNELS 3 Zrotation Yrotation Xrotation
									End Site
									{
										OFFSET 0.000000 0.000000 0.000000
									}
								}
							}
						}
					}
				}
			}
		}
	}
}
MOTION
Frames: 6
Frame Time: 0.016667
0.350830 17.919270 -3.071860 -8.450693 24.782633 5.215791 -15.321049 10.525363 6.825557 35.119449 -1.654179 -33.381790 -29.237000 11.220062 12.816878 0.443601 8.026210 1.666445 0.258830 -0.358290 0.639360 18.238871 -11.124315 1.427782 -18.291174 0.334752 -9.343589 3.164602 -6.720951 20.567793 -0.409423 -3.923030 3.158642 -0.477050 -0.164920 0.107280 -3.938536 1.188055 -9.560429 8.900521 2.863687 27.178239 -10.715898 6.333133 -20.276824 1.177772 4.671664 -11.948257 7.178926 -11.344293 51.262474 6.443770 -11.978300 -2.614480 -16.506456 9.782862 4.955086 -58.852248 13.854725 -3.743777 -164.068580 -63.998396 146.547655 -2.954033 3.169792 0.894160 -0.251490 0.216380 -0.010490 11.800739 -7.224106 4.573856 61.437657 -16.067431 -12.346361 -11.376819 11.008978 -0.271928 2.579203 -0.862356 -0.103090 0.006090 -0.156840 -0.364120 
0.336300 17.922830 -3.076520 -8.365808 24.518283 4.032802 -15.251105 11.012166 6.354931 32.814945 -2.412439 -31.923932 -25.686181 10.510550 13.721273 0.282557 7.431872 1.853950 0.281300 -0.327420 0.641250 18.197697 -11.316057 1.512162 -18.027084 -0.268947 -8.081996 2.476799 -6.632220 20.156750 -0.453346 -3.920315 3.180081 -0.459430 -0.178160 0.089590 -4.013160 0.833083 -9.398416 9.853218 2.033603 27.497474 -11.162959 5.652129 -18.906707 1.581193 3.967905 -12.263148 5.030008 -10.794731 53.328101 6.792050 -12.096620 -4.640040 -17.048397 8.093251 5.024916 -61.691507 10.792628 -3.195663 -167.844054 -64.468807 151.819105 -2.920831 3.103405 0.938560 -0.282320 0.240110 0.002540 11.881430 -5.562528 5.178050 63.993983 -16.269663 -13.079027 -13.015561 10.090249 -0.230664 2.569962 -0.852153 -0.115830 0.040770 -0.162920 -0.368540 
0.326270 17.901260 -3.107420 -9.659178 23.756220 2.317809 -15.184638 11.168719 6.166474 32.634997 -2.464015 -31.844966 -23.752021 10.731213 15.798508 0.196367 7.448583 1.857093 0.280940 -0.326800 0.595030 18.267396 -11.325411 1.516252 -17.195915 -0.551115 -7.565570 2.997891 -7.047255 21.225134 -0.472725 -4.096828 3.127855 -0.432180 -0.112620 0.098290 -4.210680 0.630279 -9.316064 13.392492 0.761203 27.521586 -12.642775 5.068708 -15.468247 2.083923 3.351760 -12.063072 3.253419 -9.908730 52.602182 7.350220 -11.916500 -5.925770 -17.785870 5.355153 5.045730 -64.106285 5.574966 -1.620787 -172.060669 -65.348495 157.796063 -2.975736 3.085462 0.936110 -0.254280 0.204590 0.027060 11.670921 -3.066507 5.406597 65.713925 -13.374571 -12.440951 -14.204057 7.351700 0.021276 2.567676 -0.907031 -0.144230 0.078160 -0.133920 -0.355360 
0.276880 17.899100 -3.173450 -9.920294 22.151702 0.870549 -15.165599 11.226163 6.046563 32.477583 -2.767617 -32.607851 -22.608428 11.527221 19.284354 0.126898 7.756409 1.779988 0.242960 -0.358740 0.536120 18.314439 -11.306810 1.465005 -17.379440 -0.582458 -8.639466 3.810634 -7.816271 23.994025 -0.448231 -4.414302 3.021419 -0.395810 -0.000030 0.074720 -4.245083 0.501370 -9.203112 14.572423 0.151677 28.404535 -12.781445 5.120789 -10.994264 2.503933 3.476100 -11.905807 2.937172 -9.651598 49.972725 7.168100 -11.264680 -6.084460 -18.505852 0.977637 5.147646 -65.692777 -2.080387 1.082593 -179.919776 -66.583608 169.209485 -3.123808 3.036303 0.901140 -0.183670 0.118450 0.036630 11.814588 0.362737 5.932414 67.394334 -10.360544 -12.946178 -15.482541 9.801837 -0.749918 2.456213 -0.957196 -0.215710 0.158990 -0.078500 -0.351010 
0.196730 17.917130 -3.273480 -9.420318 19.993620 -2.180496 -15.148393 11.447417 5.716001 31.526228 -3.230782 -31.899744 -20.441301 12.163272 23.732196 0.038089 8.022415 1.712990 0.277590 -0.296540 0.523850 18.318396 -11.410003 1.415377 -18.217285 -0.575763 -9.307812 3.717481 -8.660454 28.492858 -0.514943 -4.969446 2.813562 -0.303970 0.091580 0.066280 -4.199164 0.397438 -8.974134 13.901958 -0.807366 31.751398 -12.056914 5.210420 -3.753131 3.026690 3.297216 -12.322352 2.538024 -8.960248 47.171420 7.113610 -9.254080 -9.829580 -19.043674 -6.991035 6.131412 -64.303525 -11.378437 2.352896 166.300504 -66.375076 -173.161302 -3.325327 2.978655 0.897150 -0.136900 0.080470 0.072150 11.679863 7.884101 7.142729 67.721461 -3.757740 -12.220737 -16.992069 9.931921 -1.341511 2.351197 -1.065322 -0.277550 0.262030 -0.061640 -0.347140 
0.124890 17.914500 -3.380070 -8.668019 17.386485 -4.077616 -15.137857 11.680605 5.327764 29.453250 -3.794706 -32.264164 -16.805056 12.397790 28.921677 -0.076667 8.140984 1.671912 0.348100 -0.164190 0.521030 18.328979 -11.484956 1.427401 -18.223529 -0.051625 -12.253337 2.519386 -9.210293 34.648898 -0.589336 -5.615309 2.550922 -0.166020 0.161990 0.073880 -4.132114 0.298102 -8.689989 12.707202 -1.289688 33.649155 -10.992649 5.219958 4.581541 3.489206 3.291649 -12.609970 2.782673 -8.714279 42.283601 5.603350 -6.998150 -13.519650 -17.504798 -14.696435 7.157827 -59.658713 -19.841080 2.362874 154.477299 -63.811390 -157.864767 -3.546123 2.906028 0.840800 -0.071790 0.041260 0.100790 9.580522 14.910028 8.282503 66.675882 3.281489 -11.378128 -18.213647 11.618626 -2.411693 2.216246 -1.206837 -0.302120 0.338000 -0.053520 -0.333530 
